<mxfile host="app.diagrams.net" modified="2023-08-24T15:54:33.227Z" agent="Mozilla/5.0 (Windows NT 10.0; Win64; x64) AppleWebKit/537.36 (KHTML, like Gecko) Chrome/116.0.0.0 Safari/537.36" etag="lJAkdclTpVVToT45Adsr" version="21.6.2" type="device">
  <diagram name="Page-1" id="gOjgmxgFJ538D4orSMjN">
    <mxGraphModel dx="1195" dy="625" grid="1" gridSize="10" guides="1" tooltips="1" connect="1" arrows="1" fold="1" page="1" pageScale="1" pageWidth="1169" pageHeight="827" math="0" shadow="0">
      <root>
        <mxCell id="0" />
        <mxCell id="1" parent="0" />
        <mxCell id="HHbHc4xtxsDIpGqANBKj-1" value="Visiteurs" style="shape=umlActor;verticalLabelPosition=bottom;verticalAlign=top;html=1;outlineConnect=0;" vertex="1" parent="1">
          <mxGeometry x="60" y="110" width="40" height="80" as="geometry" />
        </mxCell>
        <mxCell id="HHbHc4xtxsDIpGqANBKj-2" value="frame" style="shape=umlFrame;whiteSpace=wrap;html=1;pointerEvents=0;" vertex="1" parent="1">
          <mxGeometry x="400" y="590" width="230" height="80" as="geometry" />
        </mxCell>
        <mxCell id="HHbHc4xtxsDIpGqANBKj-3" value="contacte le garage" style="strokeWidth=2;html=1;shape=mxgraph.flowchart.terminator;whiteSpace=wrap;" vertex="1" parent="1">
          <mxGeometry x="300" y="50" width="140" height="60" as="geometry" />
        </mxCell>
        <mxCell id="HHbHc4xtxsDIpGqANBKj-4" value="choisie un véhicule d&#39;occasion" style="strokeWidth=2;html=1;shape=mxgraph.flowchart.terminator;whiteSpace=wrap;" vertex="1" parent="1">
          <mxGeometry x="300" y="180" width="140" height="70" as="geometry" />
        </mxCell>
        <mxCell id="HHbHc4xtxsDIpGqANBKj-5" value="" style="endArrow=classic;html=1;rounded=0;entryX=0;entryY=0.5;entryDx=0;entryDy=0;entryPerimeter=0;exitX=1;exitY=0.3333333333333333;exitDx=0;exitDy=0;exitPerimeter=0;" edge="1" parent="1" source="HHbHc4xtxsDIpGqANBKj-1" target="HHbHc4xtxsDIpGqANBKj-3">
          <mxGeometry width="50" height="50" relative="1" as="geometry">
            <mxPoint x="560" y="310" as="sourcePoint" />
            <mxPoint x="610" y="260" as="targetPoint" />
          </mxGeometry>
        </mxCell>
        <mxCell id="HHbHc4xtxsDIpGqANBKj-6" value="" style="endArrow=classic;html=1;rounded=0;exitX=1;exitY=0.3333333333333333;exitDx=0;exitDy=0;exitPerimeter=0;entryX=0;entryY=0.5;entryDx=0;entryDy=0;entryPerimeter=0;" edge="1" parent="1" source="HHbHc4xtxsDIpGqANBKj-1" target="HHbHc4xtxsDIpGqANBKj-4">
          <mxGeometry width="50" height="50" relative="1" as="geometry">
            <mxPoint x="560" y="310" as="sourcePoint" />
            <mxPoint x="610" y="260" as="targetPoint" />
          </mxGeometry>
        </mxCell>
        <mxCell id="HHbHc4xtxsDIpGqANBKj-7" value="à travers un formulaire de contact en ligne" style="ellipse;whiteSpace=wrap;html=1;" vertex="1" parent="1">
          <mxGeometry x="600" y="40" width="120" height="80" as="geometry" />
        </mxCell>
        <mxCell id="HHbHc4xtxsDIpGqANBKj-8" value="à travers un système de filtres" style="ellipse;whiteSpace=wrap;html=1;" vertex="1" parent="1">
          <mxGeometry x="600" y="175" width="120" height="80" as="geometry" />
        </mxCell>
        <mxCell id="HHbHc4xtxsDIpGqANBKj-12" value="" style="endArrow=none;dashed=1;html=1;rounded=0;exitX=1;exitY=0.5;exitDx=0;exitDy=0;exitPerimeter=0;entryX=0;entryY=0.5;entryDx=0;entryDy=0;" edge="1" parent="1" source="HHbHc4xtxsDIpGqANBKj-3" target="HHbHc4xtxsDIpGqANBKj-7">
          <mxGeometry width="50" height="50" relative="1" as="geometry">
            <mxPoint x="560" y="210" as="sourcePoint" />
            <mxPoint x="610" y="160" as="targetPoint" />
          </mxGeometry>
        </mxCell>
        <mxCell id="HHbHc4xtxsDIpGqANBKj-15" value="&amp;lt;&amp;lt;include&amp;gt;&amp;gt;" style="edgeLabel;html=1;align=center;verticalAlign=middle;resizable=0;points=[];" vertex="1" connectable="0" parent="HHbHc4xtxsDIpGqANBKj-12">
          <mxGeometry x="-0.2125" y="-3" relative="1" as="geometry">
            <mxPoint x="17" y="-13" as="offset" />
          </mxGeometry>
        </mxCell>
        <mxCell id="HHbHc4xtxsDIpGqANBKj-13" value="" style="endArrow=none;dashed=1;html=1;rounded=0;exitX=1;exitY=0.5;exitDx=0;exitDy=0;exitPerimeter=0;entryX=0;entryY=0.5;entryDx=0;entryDy=0;" edge="1" parent="1" source="HHbHc4xtxsDIpGqANBKj-4" target="HHbHc4xtxsDIpGqANBKj-8">
          <mxGeometry width="50" height="50" relative="1" as="geometry">
            <mxPoint x="560" y="210" as="sourcePoint" />
            <mxPoint x="610" y="160" as="targetPoint" />
          </mxGeometry>
        </mxCell>
        <mxCell id="HHbHc4xtxsDIpGqANBKj-14" value="&amp;lt;&amp;lt;include&amp;gt;&amp;gt;" style="edgeLabel;html=1;align=center;verticalAlign=middle;resizable=0;points=[];" vertex="1" connectable="0" parent="HHbHc4xtxsDIpGqANBKj-13">
          <mxGeometry x="-0.0125" y="-1" relative="1" as="geometry">
            <mxPoint y="-16" as="offset" />
          </mxGeometry>
        </mxCell>
        <mxCell id="HHbHc4xtxsDIpGqANBKj-16" value="Administrateur" style="shape=umlActor;verticalLabelPosition=bottom;verticalAlign=top;html=1;outlineConnect=0;" vertex="1" parent="1">
          <mxGeometry x="840" y="450" width="40" height="80" as="geometry" />
        </mxCell>
        <mxCell id="HHbHc4xtxsDIpGqANBKj-21" value="Gestion des horaires d&#39;ouverture" style="text;html=1;align=center;verticalAlign=middle;resizable=0;points=[];autosize=1;strokeColor=none;fillColor=none;" vertex="1" parent="1">
          <mxGeometry x="415" y="624" width="200" height="30" as="geometry" />
        </mxCell>
        <mxCell id="HHbHc4xtxsDIpGqANBKj-22" value="frame" style="shape=umlFrame;whiteSpace=wrap;html=1;pointerEvents=0;" vertex="1" parent="1">
          <mxGeometry x="400" y="480" width="230" height="80" as="geometry" />
        </mxCell>
        <mxCell id="HHbHc4xtxsDIpGqANBKj-23" value="Gestion de compte &quot;Employés&quot;" style="text;html=1;align=center;verticalAlign=middle;resizable=0;points=[];autosize=1;strokeColor=none;fillColor=none;" vertex="1" parent="1">
          <mxGeometry x="420" y="514" width="190" height="30" as="geometry" />
        </mxCell>
        <mxCell id="HHbHc4xtxsDIpGqANBKj-24" value="frame" style="shape=umlFrame;whiteSpace=wrap;html=1;pointerEvents=0;" vertex="1" parent="1">
          <mxGeometry x="400" y="360" width="230" height="80" as="geometry" />
        </mxCell>
        <mxCell id="HHbHc4xtxsDIpGqANBKj-25" value="Gestion des services du garage" style="text;html=1;align=center;verticalAlign=middle;resizable=0;points=[];autosize=1;strokeColor=none;fillColor=none;" vertex="1" parent="1">
          <mxGeometry x="420" y="394" width="190" height="30" as="geometry" />
        </mxCell>
        <mxCell id="HHbHc4xtxsDIpGqANBKj-26" value="" style="endArrow=classic;html=1;rounded=0;exitX=0;exitY=0.3333333333333333;exitDx=0;exitDy=0;exitPerimeter=0;entryX=1.009;entryY=0.525;entryDx=0;entryDy=0;entryPerimeter=0;" edge="1" parent="1" source="HHbHc4xtxsDIpGqANBKj-16" target="HHbHc4xtxsDIpGqANBKj-24">
          <mxGeometry width="50" height="50" relative="1" as="geometry">
            <mxPoint x="560" y="510" as="sourcePoint" />
            <mxPoint x="610" y="460" as="targetPoint" />
          </mxGeometry>
        </mxCell>
        <mxCell id="HHbHc4xtxsDIpGqANBKj-27" value="" style="endArrow=classic;html=1;rounded=0;entryX=1;entryY=0.488;entryDx=0;entryDy=0;entryPerimeter=0;exitX=0;exitY=0.3333333333333333;exitDx=0;exitDy=0;exitPerimeter=0;" edge="1" parent="1" source="HHbHc4xtxsDIpGqANBKj-16" target="HHbHc4xtxsDIpGqANBKj-22">
          <mxGeometry width="50" height="50" relative="1" as="geometry">
            <mxPoint x="780" y="490" as="sourcePoint" />
            <mxPoint x="610" y="460" as="targetPoint" />
          </mxGeometry>
        </mxCell>
        <mxCell id="HHbHc4xtxsDIpGqANBKj-28" value="" style="endArrow=classic;html=1;rounded=0;exitX=0;exitY=0.3333333333333333;exitDx=0;exitDy=0;exitPerimeter=0;entryX=1;entryY=0.613;entryDx=0;entryDy=0;entryPerimeter=0;" edge="1" parent="1" source="HHbHc4xtxsDIpGqANBKj-16" target="HHbHc4xtxsDIpGqANBKj-2">
          <mxGeometry width="50" height="50" relative="1" as="geometry">
            <mxPoint x="560" y="510" as="sourcePoint" />
            <mxPoint x="610" y="460" as="targetPoint" />
          </mxGeometry>
        </mxCell>
        <mxCell id="HHbHc4xtxsDIpGqANBKj-30" value="Employés" style="shape=umlActor;verticalLabelPosition=bottom;verticalAlign=top;html=1;outlineConnect=0;" vertex="1" parent="1">
          <mxGeometry x="840" y="830" width="40" height="80" as="geometry" />
        </mxCell>
        <mxCell id="HHbHc4xtxsDIpGqANBKj-32" value="frame" style="shape=umlFrame;whiteSpace=wrap;html=1;pointerEvents=0;" vertex="1" parent="1">
          <mxGeometry x="400" y="860" width="230" height="80" as="geometry" />
        </mxCell>
        <mxCell id="HHbHc4xtxsDIpGqANBKj-33" value="Gestion des &quot; témoignages clients &quot;" style="text;html=1;align=center;verticalAlign=middle;resizable=0;points=[];autosize=1;strokeColor=none;fillColor=none;" vertex="1" parent="1">
          <mxGeometry x="410" y="894" width="210" height="30" as="geometry" />
        </mxCell>
        <mxCell id="HHbHc4xtxsDIpGqANBKj-34" value="frame" style="shape=umlFrame;whiteSpace=wrap;html=1;pointerEvents=0;" vertex="1" parent="1">
          <mxGeometry x="400" y="740" width="230" height="80" as="geometry" />
        </mxCell>
        <mxCell id="HHbHc4xtxsDIpGqANBKj-35" value="Gestion du service: &quot;Véhicule d&#39;occasion&quot;" style="text;html=1;align=center;verticalAlign=middle;resizable=0;points=[];autosize=1;strokeColor=none;fillColor=none;" vertex="1" parent="1">
          <mxGeometry x="395" y="774" width="240" height="30" as="geometry" />
        </mxCell>
        <mxCell id="HHbHc4xtxsDIpGqANBKj-36" value="" style="endArrow=classic;html=1;rounded=0;exitX=0;exitY=0.3333333333333333;exitDx=0;exitDy=0;exitPerimeter=0;entryX=1.009;entryY=0.525;entryDx=0;entryDy=0;entryPerimeter=0;" edge="1" parent="1" source="HHbHc4xtxsDIpGqANBKj-30" target="HHbHc4xtxsDIpGqANBKj-34">
          <mxGeometry width="50" height="50" relative="1" as="geometry">
            <mxPoint x="560" y="890" as="sourcePoint" />
            <mxPoint x="610" y="840" as="targetPoint" />
          </mxGeometry>
        </mxCell>
        <mxCell id="HHbHc4xtxsDIpGqANBKj-37" value="" style="endArrow=classic;html=1;rounded=0;entryX=1;entryY=0.488;entryDx=0;entryDy=0;entryPerimeter=0;exitX=0;exitY=0.3333333333333333;exitDx=0;exitDy=0;exitPerimeter=0;" edge="1" parent="1" source="HHbHc4xtxsDIpGqANBKj-30" target="HHbHc4xtxsDIpGqANBKj-32">
          <mxGeometry width="50" height="50" relative="1" as="geometry">
            <mxPoint x="780" y="870" as="sourcePoint" />
            <mxPoint x="610" y="840" as="targetPoint" />
          </mxGeometry>
        </mxCell>
      </root>
    </mxGraphModel>
  </diagram>
</mxfile>
